<svg xmlns="http://www.w3.org/2000/svg" xmlns:xlink="http://www.w3.org/1999/xlink" width="36" height="36" fill="none" xmlns:v="https://vecta.io/nano"><rect width="36" height="36" rx="5" fill="#17161b"/><g fill="#c5f74f"><use xlink:href="#B"/><path d="M16.613 11.596c.336-.562 1.087-.762 1.678-.446s.796 1.028.46 1.591l-3.946 6.602c-.336.562-1.087.762-1.677.446s-.796-1.028-.46-1.591l3.946-6.602z"/><use xlink:href="#B" x="21.593" y="-5.062"/><use xlink:href="#B" x="13.085"/></g><defs ><path id="B" d="M8.108 16.658c.336-.562 1.087-.762 1.677-.446s.796 1.028.46 1.591l-3.946 6.602c-.336.562-1.087.762-1.677.446s-.796-1.028-.46-1.591l3.946-6.602z"/></defs></svg>