<svg xmlns="http://www.w3.org/2000/svg" viewBox="0 0 24 24" xmlns:v="https://vecta.io/nano"><path d="M10.1 17.8C7.6 17 5.9 14.6 5.9 12A6.06 6.06 0 0 1 12 5.9h.8c.4-.9.9-1.7 1.5-2.5-.5-.6-.8-1.4-.8-2.3 0-.3 0-.7.1-1-.5-.1-1-.1-1.5-.1C5.4.1.1 5.4.1 12c0 4.3 2.3 8.1 5.8 10.2l.1-.1c1.9-.9 3.3-2.4 4.1-4.3zM16.9 3c.7 0 1.3-.4 1.6-.9h0c-1-.6-2.1-1.1-3.2-1.5h0c-.1.2-.1.4-.1.6-.1 1 .7 1.8 1.7 1.8zm3 .1c-.7 1-1.8 1.6-2.9 1.6-.3 0-.5 0-.8-.1-.2 0-.3-.1-.5-.1-.5.6-.9 1.2-1.2 1.9 2.2 1 3.7 3.1 3.7 5.6a6.06 6.06 0 0 1-6.1 6.1H12a10.07 10.07 0 0 1-4.1 5c1.3.5 2.7.8 4.2.8C18.7 23.9 24 18.6 24 12c-.1-3.6-1.7-6.7-4.1-8.9z"/><circle cx="12" cy="12" r="4.4"/></svg>