<svg xmlns="http://www.w3.org/2000/svg" width="190" height="190" fill-rule="evenodd" xmlns:v="https://vecta.io/nano"><path d="M150.276 61.344c3.093-14.981 3.756-26.471 1.757-34.814-1.189-4.962-3.363-9.01-6.668-11.931-3.49-3.083-7.901-4.596-12.859-4.596-8.178 0-16.775 3.725-25.962 10.802-3.747 2.887-7.637 6.366-11.676 10.44-.321-.413-.685-.803-1.09-1.164-11.42-10.166-21.034-16.482-29.257-18.917-4.889-1.448-9.48-1.586-13.661-.181-4.413 1.483-7.929 4.55-10.409 8.845-4.094 7.089-5.174 16.403-3.647 27.904.622 4.688 1.686 9.794 3.189 15.327-.567.068-1.135.194-1.698.38-14.489 4.796-24.749 9.954-30.96 15.849C3.639 82.795 1.226 86.7.354 91.022c-.921 4.562-.023 9.138 2.455 13.429 4.086 7.078 11.6 12.661 22.304 17.083 4.298 1.776 9.161 3.384 14.594 4.83-.248.559-.44 1.153-.569 1.776-3.093 14.981-3.756 26.471-1.757 34.814 1.189 4.962 3.363 9.01 6.668 11.931 3.49 3.083 7.901 4.596 12.859 4.596 8.178 0 16.775-3.725 25.962-10.802 3.787-2.917 7.72-6.44 11.805-10.57.42.657.936 1.267 1.547 1.811 11.42 10.166 21.034 16.482 29.257 18.917 4.889 1.448 9.48 1.586 13.661.181 4.413-1.483 7.929-4.55 10.409-8.845 4.094-7.089 5.174-16.403 3.647-27.904-.645-4.857-1.763-10.164-3.353-15.929.621-.063 1.246-.194 1.863-.398 14.489-4.796 24.749-9.954 30.96-15.849 3.696-3.507 6.109-7.412 6.981-11.734.921-4.562.023-9.138-2.455-13.429-4.086-7.078-11.6-12.661-22.304-17.083-4.426-1.828-9.451-3.479-15.082-4.959a8.75 8.75 0 0 0 .47-1.544z" fill="#002c4b" fill-rule="nonzero"/><path d="M80.397 64h29.211a5 5 0 0 1 4.337 2.512l14.632 25.5a5 5 0 0 1 0 4.977l-14.632 25.5a5 5 0 0 1-4.337 2.512H80.397a5 5 0 0 1-4.337-2.512l-14.632-25.5a5 5 0 0 1 0-4.977l14.632-25.5A5 5 0 0 1 80.397 64zm25.591 6.277a5 5 0 0 1 4.338 2.514l11.017 19.223a5 5 0 0 1 0 4.972l-11.017 19.223a5 5 0 0 1-4.338 2.514H84.017a5 5 0 0 1-4.338-2.514L68.662 96.986a5 5 0 0 1 0-4.972L79.679 72.79a5 5 0 0 1 4.338-2.514h21.971zm-3.907 6.865H87.924a5 5 0 0 0-4.336 2.509h0l-7.1 12.359a5 5 0 0 0 0 4.981h0l7.1 12.359a5 5 0 0 0 4.336 2.509h0 14.156a5 5 0 0 0 4.336-2.509h0l7.1-12.359a5 5 0 0 0 0-4.981h0l-7.1-12.359a5 5 0 0 0-4.336-2.509h0zm-3.761 6.571a5 5 0 0 1 4.334 2.506l3.331 5.788a5 5 0 0 1 0 4.988l-3.331 5.788a5 5 0 0 1-4.334 2.506h-6.633a5 5 0 0 1-4.334-2.506l-3.331-5.788a5 5 0 0 1 0-4.988l3.331-5.788a5 5 0 0 1 4.334-2.506h6.633zm-3.315 6.473a4.32 4.32 0 0 0-3.741 2.158c-.771 1.335-.771 2.98 0 4.315s2.196 2.158 3.738 2.158h0a4.32 4.32 0 0 0 3.741-2.158c.771-1.335.771-2.98 0-4.315s-2.196-2.158-3.738-2.158h0zM60 94.501h7.768" fill="#ffd94c"/><path d="M54.86 108.358c1.311-.749 2.976-.283 3.718 1.042h0l.475.844c3.804 6.739 7.766 13.137 11.888 19.192 4.867 7.15 10.341 14.389 16.422 21.716.954 1.15.822 2.86-.297 3.847h0l-.611.537c-20.108 17.569-33.176 21.078-39.206 10.528-5.898-10.32-3.764-29.079 6.403-56.279a2.75 2.75 0 0 1 1.209-1.425zm85.674 20.684a2.71 2.71 0 0 1 3.125 2.153h0l.153.792c4.97 26.009 1.471 39.014-10.497 39.014-11.706 0-26.607-11.091-44.703-33.273-.401-.492-.618-1.11-.613-1.746.013-1.501 1.236-2.707 2.731-2.694h0l.954.007c7.621.041 15.03-.223 22.226-.793 8.498-.673 17.373-1.827 26.623-3.46zm6.875-55.23c.523-1.409 2.1-2.149 3.546-1.663h0l.788.266c25.841 8.802 35.66 18.476 29.456 29.021-6.068 10.315-23.714 17.824-52.937 22.527a2.85 2.85 0 0 1-1.879-.345c-1.336-.772-1.781-2.461-.994-3.771h0l.5-.837c3.988-6.694 7.592-13.356 10.813-19.986 3.803-7.829 7.372-16.234 10.707-25.212zm-85.67-7.776a2.85 2.85 0 0 1 1.879.345c1.336.772 1.781 2.461.994 3.771h0l-.5.837c-3.988 6.694-7.592 13.356-10.813 19.986-3.803 7.829-7.372 16.234-10.707 25.212-.523 1.409-2.1 2.149-3.546 1.663h0l-.788-.266c-25.841-8.802-35.66-18.476-29.456-29.021C14.87 78.249 32.516 70.74 61.738 66.036zm41.807-31.571c20.108-17.569 33.176-21.078 39.206-10.528 5.898 10.32 3.764 29.079-6.403 56.279a2.75 2.75 0 0 1-1.209 1.425c-1.311.749-2.976.283-3.718-1.042h0l-.475-.844c-3.804-6.739-7.766-13.137-11.888-19.192-4.867-7.15-10.341-14.389-16.422-21.716-.954-1.15-.822-2.86.297-3.847h0zM57.684 18c11.706 0 26.607 11.091 44.703 33.273.401.492.618 1.11.613 1.746-.013 1.501-1.236 2.707-2.731 2.694h0l-.954-.007c-7.621-.041-15.03.223-22.226.793-8.498.673-17.373 1.827-26.623 3.46a2.71 2.71 0 0 1-3.125-2.153h0l-.153-.792C42.218 31.005 45.717 18 57.684 18z" fill="#ff4154"/></svg>